<?xml version="1.0" encoding="UTF-8"?>
<svg width="712px" height="105px" viewBox="0 0 712 105" version="1.1" xmlns="http://www.w3.org/2000/svg" xmlns:xlink="http://www.w3.org/1999/xlink">
    <!-- Generator: Sketch 49.3 (51167) - http://www.bohemiancoding.com/sketch -->
    <title>for sketch and Photo</title>
    <desc>Created with Sketch.</desc>
    <defs></defs>
    <g id="Page-2" stroke="none" stroke-width="1" fill="none" fill-rule="evenodd">
        <g id="Artboard-2-Copy" transform="translate(-191.000000, -364.000000)" stroke="#000000" stroke-width="0.2">
            <g id="Group" transform="translate(192.000000, 365.000000)">
                <path d="M21.4654596,12.1551398 L12.2844498,12.1551398 L12.2844498,43.1895392 L19.9137396,43.1895392 L19.9137396,54.051579 L12.2844498,54.051579 L12.2844498,102.413518 L0,102.413518 L0,1.29309998 L21.4654596,1.29309998 L21.4654596,12.1551398 Z M39.4395493,103.706618 C30.2585394,103.706618 25.4740695,98.7928381 25.4740695,89.6118283 L25.4740695,14.0947897 C25.4740695,4.91377991 30.2585394,0 39.4395493,0 C48.6205591,0 53.405029,4.91377991 53.405029,14.0947897 L53.405029,89.6118283 C53.405029,98.7928381 48.6205591,103.706618 39.4395493,103.706618 Z M37.7585193,92.7152682 L41.1205792,92.7152682 L41.1205792,10.9913498 L37.7585193,10.9913498 L37.7585193,92.7152682 Z M86.7670084,86.2497684 C86.7670084,92.4566483 87.1549384,96.7238782 88.4480383,102.413518 L76.1635886,102.413518 C74.8704886,96.7238782 74.4825586,92.4566483 74.4825586,86.2497684 L74.4825586,53.792959 L71.1204987,53.792959 L71.1204987,102.413518 L58.8360489,102.413518 L58.8360489,1.29309998 L75.3877286,1.29309998 C82.4997784,1.29309998 86.7670084,6.59480988 86.7670084,15.3878897 L86.7670084,38.4050693 C86.7670084,42.6722992 85.6032184,45.9050491 83.4049484,48.1033191 C85.6032184,50.560209 86.7670084,54.180889 86.7670084,58.8360489 L86.7670084,86.2497684 Z M71.1204987,11.6378998 L71.1204987,43.4481592 L74.4825586,43.4481592 L74.4825586,11.6378998 L71.1204987,11.6378998 Z M118.189338,103.706618 C109.008328,103.706618 104.223858,98.7928381 104.223858,89.6118283 L104.223858,64.9136188 L116.508308,64.9136188 L116.508308,92.8445782 L119.870368,92.8445782 L119.870368,70.6032587 C119.870368,53.534339 104.741098,48.3619391 104.741098,29.7412994 L104.741098,14.0947897 C104.741098,4.91377991 109.525568,0 118.706578,0 C127.499658,0 132.154818,4.91377991 132.154818,14.0947897 L132.154818,33.6205994 L120.387608,33.6205994 L120.387608,10.8620398 L117.025548,10.8620398 L117.025548,29.7412994 C117.025548,44.7412592 132.154818,50.1722791 132.154818,70.6032587 L132.154818,89.6118283 C132.154818,98.7928381 127.370348,103.706618 118.189338,103.706618 Z M137.585837,102.413518 L137.585837,1.29309998 L149.870287,1.29309998 L149.870287,43.3188492 L151.292697,43.3188492 L151.292697,40.6033392 L157.499577,1.29309998 L169.784027,1.29309998 L160.990947,46.4222891 L170.947817,102.413518 L158.663367,102.413518 L151.292697,56.7670889 L151.292697,54.180889 L149.870287,54.180889 L149.870287,102.413518 L137.585837,102.413518 Z M196.292576,12.1551398 L187.111566,12.1551398 L187.111566,43.3188492 L194.740856,43.3188492 L194.740856,54.180889 L187.111566,54.180889 L187.111566,91.5514783 L196.292576,91.5514783 L196.292576,102.413518 L174.827117,102.413518 L174.827117,1.29309998 L196.292576,1.29309998 L196.292576,12.1551398 Z M223.706296,1.29309998 L223.706296,12.1551398 L217.240796,12.1551398 L217.240796,102.413518 L204.956346,102.413518 L204.956346,12.1551398 L198.490846,12.1551398 L198.490846,1.29309998 L223.706296,1.29309998 Z M241.033835,103.706618 C231.852826,103.706618 227.068356,98.7928381 227.068356,89.6118283 L227.068356,14.0947897 C227.068356,4.91377991 231.852826,0 241.033835,0 C250.214845,0 254.999315,4.91377991 254.999315,14.0947897 L254.999315,42.9309192 L242.714865,42.9309192 L242.714865,10.8620398 L239.352805,10.8620398 L239.352805,92.8445782 L242.714865,92.8445782 L242.714865,56.1205389 L254.999315,56.1205389 L254.999315,89.6118283 C254.999315,98.7928381 250.214845,103.706618 241.033835,103.706618 Z M260.430335,102.413518 L260.430335,1.29309998 L272.714785,1.29309998 L272.714785,43.3188492 L276.076845,43.3188492 L276.076845,1.29309998 L288.361295,1.29309998 L288.361295,102.413518 L276.076845,102.413518 L276.076845,54.180889 L272.714785,54.180889 L272.714785,102.413518 L260.430335,102.413518 Z M304.007804,102.413518 L312.025024,1.29309998 L329.869804,1.29309998 L337.887024,102.413518 L325.602574,102.413518 L324.697404,83.2756384 L317.197424,83.2756384 L316.292254,102.413518 L304.007804,102.413518 Z M317.843974,71.6377386 L324.050854,71.6377386 L321.593964,18.7499496 L321.593964,16.1637497 L320.300864,16.1637497 L320.300864,18.7499496 L317.843974,71.6377386 Z M341.766324,102.413518 L341.766324,1.29309998 L352.886983,1.29309998 L359.869723,53.792959 L359.869723,56.3791589 L361.292133,56.3791589 L361.292133,1.29309998 L372.283483,1.29309998 L372.283483,102.413518 L361.550753,102.413518 L354.180083,48.6205591 L354.180083,46.0343591 L352.757673,46.0343591 L352.757673,102.413518 L341.766324,102.413518 Z M377.973123,102.413518 L377.973123,1.29309998 L394.524803,1.29309998 C401.636852,1.29309998 405.904082,6.59480988 405.904082,15.3878897 L405.904082,88.3187283 C405.904082,97.1118082 401.636852,102.413518 394.524803,102.413518 L377.973123,102.413518 Z M390.257573,91.5514783 L393.619633,91.5514783 L393.619633,12.1551398 L390.257573,12.1551398 L390.257573,91.5514783 Z M439.912612,1.29309998 C447.024662,1.29309998 451.291891,6.59480988 451.291891,15.3878897 L451.291891,43.9653992 C451.291891,52.758479 447.024662,58.0601889 439.912612,58.0601889 L435.645382,58.0601889 L435.645382,102.413518 L423.360932,102.413518 L423.360932,1.29309998 L439.912612,1.29309998 Z M439.007442,47.1981491 L439.007442,12.1551398 L435.645382,12.1551398 L435.645382,47.1981491 L439.007442,47.1981491 Z M455.559121,102.413518 L455.559121,1.29309998 L467.843571,1.29309998 L467.843571,43.3188492 L471.205631,43.3188492 L471.205631,1.29309998 L483.490081,1.29309998 L483.490081,102.413518 L471.205631,102.413518 L471.205631,54.180889 L467.843571,54.180889 L467.843571,102.413518 L455.559121,102.413518 Z M502.886581,103.706618 C493.705571,103.706618 488.921101,98.7928381 488.921101,89.6118283 L488.921101,14.0947897 C488.921101,4.91377991 493.705571,0 502.886581,0 C512.06759,0 516.85206,4.91377991 516.85206,14.0947897 L516.85206,89.6118283 C516.85206,98.7928381 512.06759,103.706618 502.886581,103.706618 Z M501.205551,92.7152682 L504.56761,92.7152682 L504.56761,10.9913498 L501.205551,10.9913498 L501.205551,92.7152682 Z M545.42957,1.29309998 L545.42957,12.1551398 L538.96407,12.1551398 L538.96407,102.413518 L526.67962,102.413518 L526.67962,12.1551398 L520.21412,12.1551398 L520.21412,1.29309998 L545.42957,1.29309998 Z M562.757109,103.706618 C553.5761,103.706618 548.79163,98.7928381 548.79163,89.6118283 L548.79163,14.0947897 C548.79163,4.91377991 553.5761,0 562.757109,0 C571.938119,0 576.722589,4.91377991 576.722589,14.0947897 L576.722589,89.6118283 C576.722589,98.7928381 571.938119,103.706618 562.757109,103.706618 Z M561.076079,92.7152682 L564.438139,92.7152682 L564.438139,10.9913498 L561.076079,10.9913498 L561.076079,92.7152682 Z M595.860469,103.706618 C586.679459,103.706618 581.894989,98.7928381 581.894989,89.6118283 L581.894989,64.9136188 L594.179439,64.9136188 L594.179439,92.8445782 L597.541499,92.8445782 L597.541499,70.6032587 C597.541499,53.534339 582.412229,48.3619391 582.412229,29.7412994 L582.412229,14.0947897 C582.412229,4.91377991 587.196699,0 596.377709,0 C605.170789,0 609.825948,4.91377991 609.825948,14.0947897 L609.825948,33.6205994 L598.058739,33.6205994 L598.058739,10.8620398 L594.696679,10.8620398 L594.696679,29.7412994 C594.696679,44.7412592 609.825948,50.1722791 609.825948,70.6032587 L609.825948,89.6118283 C609.825948,98.7928381 605.041479,103.706618 595.860469,103.706618 Z M615.256968,102.413518 L615.256968,1.29309998 L627.541418,1.29309998 L627.541418,43.3188492 L630.903478,43.3188492 L630.903478,1.29309998 L643.187928,1.29309998 L643.187928,102.413518 L630.903478,102.413518 L630.903478,54.180889 L627.541418,54.180889 L627.541418,102.413518 L615.256968,102.413518 Z M662.584427,103.706618 C653.403418,103.706618 648.618948,98.7928381 648.618948,89.6118283 L648.618948,14.0947897 C648.618948,4.91377991 653.403418,0 662.584427,0 C671.765437,0 676.549907,4.91377991 676.549907,14.0947897 L676.549907,89.6118283 C676.549907,98.7928381 671.765437,103.706618 662.584427,103.706618 Z M660.903398,92.7152682 L664.265457,92.7152682 L664.265457,10.9913498 L660.903398,10.9913498 L660.903398,92.7152682 Z M698.532607,1.29309998 C705.644657,1.29309998 709.911887,6.59480988 709.911887,15.3878897 L709.911887,43.9653992 C709.911887,52.758479 705.644657,58.0601889 698.532607,58.0601889 L694.265377,58.0601889 L694.265377,102.413518 L681.980927,102.413518 L681.980927,1.29309998 L698.532607,1.29309998 Z M697.627437,47.1981491 L697.627437,12.1551398 L694.265377,12.1551398 L694.265377,47.1981491 L697.627437,47.1981491 Z" id="for-sketch-and-Photo"></path>
            </g>
        </g>
    </g>
</svg>