<?xml version="1.0" encoding="UTF-8"?>
<svg width="1332px" height="1285px" viewBox="0 0 1332 1285" version="1.1" xmlns="http://www.w3.org/2000/svg" xmlns:xlink="http://www.w3.org/1999/xlink">
    <!-- Generator: Sketch 49.3 (51167) - http://www.bohemiancoding.com/sketch -->
    <title>INfo</title>
    <desc>Created with Sketch.</desc>
    <defs></defs>
    <g id="Page-2" stroke="none" stroke-width="1" fill="none" fill-rule="evenodd">
        <g id="Artboard-2-Copy" transform="translate(-52.000000, -8468.000000)" fill="#FFFFFF" stroke="#000000" stroke-width="0.08">
            <g id="Group-4-Copy-2" transform="translate(-51.000000, 7931.000000)">
                <path d="M103.2,1805 L103.2,553.8 L255.2,553.8 L255.2,1805 L103.2,1805 Z M325.6,1805 L325.6,553.8 L463.2,553.8 L549.6,1203.4 L549.6,1235.4 L567.2,1235.4 L567.2,553.8 L703.2,553.8 L703.2,1805 L570.4,1805 L479.2,1139.4 L479.2,1107.4 L461.6,1107.4 L461.6,1805 L325.6,1805 Z M1039.2,688.2 L925.6,688.2 L925.6,1072.2 L1020,1072.2 L1020,1206.6 L925.6,1206.6 L925.6,1805 L773.6,1805 L773.6,553.8 L1039.2,553.8 L1039.2,688.2 Z M1261.6,1821 C1148,1821 1088.8,1760.2 1088.8,1646.6 L1088.8,712.2 C1088.8,598.6 1148,537.8 1261.6,537.8 C1375.2,537.8 1434.4,598.6 1434.4,712.2 L1434.4,1646.6 C1434.4,1760.2 1375.2,1821 1261.6,1821 Z M1240.8,1685 L1282.4,1685 L1282.4,673.8 L1240.8,673.8 L1240.8,1685 Z" id="INfo"></path>
            </g>
        </g>
    </g>
</svg>