<?xml version="1.0" encoding="UTF-8"?>
<svg width="30px" height="30px" viewBox="0 0 30 30" version="1.1" xmlns="http://www.w3.org/2000/svg" xmlns:xlink="http://www.w3.org/1999/xlink">
    <!-- Generator: Sketch 49.3 (51167) - http://www.bohemiancoding.com/sketch -->
    <title>logo</title>
    <desc>Created with Sketch.</desc>
    <defs></defs>
    <g id="Page-1" stroke="none" stroke-width="1" fill="none" fill-rule="evenodd">
        <g id="logo" fill-rule="nonzero">
            <circle id="Oval-Copy" fill="#FFFFFF" cx="15" cy="15" r="15"></circle>
            <path d="M17.0067807,14.5397351 C16.7712469,14.2141028 16.6037296,13.973265 16.4410525,13.7205376 C16.0050094,13.067259 15.8770153,12.3560687 16.0061584,11.5633727 L16.0156373,11.5124815 C16.0619788,11.2916219 16.1333625,11.0776019 16.2284442,10.8709385 C16.3183787,10.6763944 16.4282882,10.4913024 16.5556046,10.3184218 C16.7192158,10.0961947 16.9109167,9.89474169 17.1375523,9.70866929 C17.895976,9.1065714 18.7933124,8.91558645 19.7978129,9.03272237 C20.4694415,9.11104167 21.031035,9.27993875 22,9.63960946 L21.3259071,11.6845667 C19.7233431,11.08971 18.9317995,10.9957523 18.3674309,11.4379639 C18.2895693,11.5028292 18.2209411,11.5754304 18.1643345,11.6523171 C18.1228144,11.7086965 18.0883305,11.7667689 18.0622219,11.8232417 C18.0406748,11.8700763 18.0244702,11.9162079 18.0133708,11.9615868 C17.9791689,12.1925164 18.0047227,12.3162942 18.1221005,12.4911176 C18.260748,12.7069054 18.4093129,12.9206326 18.6263112,13.2206389 C18.6038797,13.1896268 18.9331544,13.6428153 19.023841,13.7697149 C19.4141963,14.3159472 19.6753184,14.7283423 19.8966146,15.1813777 C20.183139,15.7679477 20.364024,16.3628029 20.4326589,17.0169001 C20.4568422,17.2752654 20.4612401,17.5333588 20.4449936,17.7905634 C20.4107785,18.3299682 20.2858001,18.8591497 20.0678177,19.3698095 C19.9682637,19.6032155 19.847813,19.8258274 19.7084213,20.0356859 C19.311066,20.6343499 18.7664645,21.1199479 18.1288476,21.4609687 C17.8840759,21.591835 17.6272891,21.7004786 17.3345158,21.7940428 C15.3819318,22.3577633 13.2026769,21.7427881 11.843158,20.2125212 L13.3286754,18.7263896 C14.1598879,19.6619977 15.5518184,20.0574505 16.78449,19.7075983 C16.9326173,19.6591668 17.0752595,19.5983697 17.2101035,19.5262758 C17.5559208,19.34132 17.8406369,19.0874508 18.0394863,18.7878602 C18.1056089,18.6883108 18.1618654,18.5843396 18.2079933,18.4761922 C18.3250721,18.2019157 18.3901728,17.9262674 18.4079904,17.6453702 C18.4164355,17.5116744 18.414282,17.3757259 18.4016553,17.2374413 C18.3291097,16.5599353 18.0538476,15.9977825 17.397101,15.0787834 C17.3122291,14.9600204 16.9889721,14.5151142 17.0067807,14.5397351 Z M14.8295652,10.1129516 L14.8295652,15.4430963 L16.0785099,15.4430963 L16.0785099,17.6095526 L12.7879721,17.6095526 L12.7879721,10.1129516 L14.8295652,10.1129516 Z M11.7562643,14.912489 C11.7562643,15.7202763 11.1393628,16.3750877 10.3781889,16.3750877 C9.61690142,16.3750877 9,15.7202763 9,14.912489 C9,14.1048822 9.61690142,13.4501911 10.3781889,13.4501911 C11.1393628,13.4501911 11.7562643,14.1048822 11.7562643,14.912489 Z" id="Combined-Shape" fill="#262626"></path>
        </g>
    </g>
</svg>