<?xml version="1.0" encoding="UTF-8"?>
<svg width="90px" height="12px" viewBox="0 0 90 12" version="1.1" xmlns="http://www.w3.org/2000/svg" xmlns:xlink="http://www.w3.org/1999/xlink">
    <!-- Generator: Sketch 49.3 (51167) - http://www.bohemiancoding.com/sketch -->
    <title>qaitomo_outlined</title>
    <desc>Created with Sketch.</desc>
    <defs></defs>
    <g id="Page-1" stroke="none" stroke-width="1" fill="none" fill-rule="evenodd">
        <g id="qaitomo_outlined" fill="#FFFFFF" fill-rule="nonzero">
            <path d="M7.035,11.18 C2.43,11.18 0.42,9.02 0.42,6.02 C0.42,3.245 2.445,0.95 7.035,0.95 C11.61,0.95 13.635,3.08 13.635,5.51 C13.635,6.995 12.765,8.33 11.115,8.915 L11.115,8.96 C11.595,8.93 13.005,8.81 13.59,8.75 L13.59,11.18 L7.035,11.18 Z M7.035,8.54 C8.88,8.54 9.69,7.52 9.69,6.035 C9.69,4.64 8.835,3.59 7.035,3.59 C5.235,3.59 4.365,4.64 4.365,6.035 C4.365,7.58 5.22,8.54 7.035,8.54 Z M24.33,11 L23.535,9.23 L18.825,9.23 L18.03,11 L14.25,11 L19.155,1.13 L23.85,1.13 L28.755,11 L24.33,11 Z M19.635,7.445 L22.74,7.445 L21.21,4.025 L21.165,4.025 L19.635,7.445 Z M29.715,11 L29.715,1.13 L33.465,1.13 L33.465,11 L29.715,11 Z M38.055,11 L38.055,3.875 L34.575,3.875 L34.575,1.13 L45.285,1.13 L45.285,3.875 L41.805,3.875 L41.805,11 L38.055,11 Z M52.665,11.18 C48.075,11.18 46.05,9.02 46.05,6.02 C46.05,3.245 48.09,0.95 52.665,0.95 C57.225,0.95 59.265,3.245 59.265,6.02 C59.265,8.87 57.375,11.18 52.665,11.18 Z M52.665,8.54 C54.51,8.54 55.32,7.52 55.32,6.035 C55.32,4.64 54.465,3.59 52.665,3.59 C50.865,3.59 49.995,4.64 49.995,6.035 C49.995,7.58 50.85,8.54 52.665,8.54 Z M60.375,11 L60.375,1.13 L66.195,1.13 L68.16,6.545 L68.175,6.545 L70.11,1.13 L75.405,1.13 L75.405,11 L71.67,11 L71.685,4.115 L71.67,4.115 L69.165,11 L66.18,11 L63.675,4.115 L63.645,4.115 L63.66,11 L60.375,11 Z M83.145,11.18 C78.555,11.18 76.53,9.02 76.53,6.02 C76.53,3.245 78.57,0.95 83.145,0.95 C87.705,0.95 89.745,3.245 89.745,6.02 C89.745,8.87 87.855,11.18 83.145,11.18 Z M83.145,8.54 C84.99,8.54 85.8,7.52 85.8,6.035 C85.8,4.64 84.945,3.59 83.145,3.59 C81.345,3.59 80.475,4.64 80.475,6.035 C80.475,7.58 81.33,8.54 83.145,8.54 Z" id="qaitomo"></path>
        </g>
    </g>
</svg>