<?xml version="1.0" encoding="UTF-8"?>
<svg width="1221px" height="605px" viewBox="0 0 1221 605" version="1.1" xmlns="http://www.w3.org/2000/svg" xmlns:xlink="http://www.w3.org/1999/xlink">
    <!-- Generator: Sketch 49.3 (51167) - http://www.bohemiancoding.com/sketch -->
    <title>qaitomo</title>
    <desc>Created with Sketch.</desc>
    <defs></defs>
    <g id="Page-2" stroke="none" stroke-width="1" fill="none" fill-rule="evenodd" stroke-opacity="0.441802536">
        <g id="Behance-Final" transform="translate(-30.000000, -18212.000000)" stroke="#FFFFFF">
            <g id="Group-3" transform="translate(-108.000000, 18014.000000)">
                <path d="M293.008,693.109 C293.008,723.055 283.739,744.445 265.914,757.279 L288.017,802.198 L226.699,802.198 L216.717,770.826 L216.004,770.826 C165.381,770.826 139,743.732 139,693.109 L139,276.717 C139,226.094 165.381,199 216.004,199 C266.627,199 293.008,226.094 293.008,276.717 L293.008,693.109 Z M206.735,258.892 L206.735,710.934 L225.273,710.934 L225.273,258.892 L206.735,258.892 Z M314.398,763.696 L358.604,206.13 L456.998,206.13 L501.204,763.696 L433.469,763.696 L428.478,658.172 L387.124,658.172 L382.133,763.696 L314.398,763.696 Z M390.689,594.002 L424.913,594.002 L411.366,302.385 L411.366,288.125 L404.236,288.125 L404.236,302.385 L390.689,594.002 Z M522.594,763.696 L522.594,206.13 L590.329,206.13 L590.329,763.696 L522.594,763.696 Z M749.328,206.13 L749.328,266.022 L713.678,266.022 L713.678,763.696 L645.943,763.696 L645.943,266.022 L610.293,266.022 L610.293,206.13 L749.328,206.13 Z M844.87,770.826 C794.247,770.826 767.866,743.732 767.866,693.109 L767.866,276.717 C767.866,226.094 794.247,199 844.87,199 C895.493,199 921.874,226.094 921.874,276.717 L921.874,693.109 C921.874,743.732 895.493,770.826 844.87,770.826 Z M835.601,710.221 L854.139,710.221 L854.139,259.605 L835.601,259.605 L835.601,710.221 Z M951.82,763.696 L951.82,206.13 L1029.537,206.13 L1058.057,534.823 L1058.057,549.083 L1064.474,549.083 L1064.474,534.823 L1095.846,206.13 L1173.563,206.13 L1173.563,763.696 L1110.819,763.696 L1110.819,424.308 L1102.976,424.308 L1102.976,438.568 L1080.16,763.696 L1045.223,763.696 L1022.407,438.568 L1022.407,424.308 L1014.564,424.308 L1014.564,763.696 L951.82,763.696 Z M1280.513,770.826 C1229.89,770.826 1203.509,743.732 1203.509,693.109 L1203.509,276.717 C1203.509,226.094 1229.89,199 1280.513,199 C1331.136,199 1357.517,226.094 1357.517,276.717 L1357.517,693.109 C1357.517,743.732 1331.136,770.826 1280.513,770.826 Z M1271.244,710.221 L1289.782,710.221 L1289.782,259.605 L1271.244,259.605 L1271.244,710.221 Z" id="qaitomo"></path>
            </g>
        </g>
    </g>
</svg>