<?xml version="1.0" encoding="UTF-8"?>
<svg width="1404px" height="486px" viewBox="0 0 1404 486" version="1.1" xmlns="http://www.w3.org/2000/svg" xmlns:xlink="http://www.w3.org/1999/xlink">
    <!-- Generator: Sketch 49.3 (51167) - http://www.bohemiancoding.com/sketch -->
    <title>style-guide</title>
    <desc>Created with Sketch.</desc>
    <defs></defs>
    <g id="Page-2" stroke="none" stroke-width="1" fill="none" fill-rule="evenodd">
        <g id="style-guide-icon" transform="translate(1.000000, 1.000000)" fill="#222222" fill-rule="nonzero" stroke="#FFFFFF" stroke-width="0.1">
            <path d="M65.232,484.408 C22.348,484.408 0,461.456 0,418.572 L0,303.208 L57.38,303.208 L57.38,433.672 L73.084,433.672 L73.084,329.784 C73.084,250.056 2.416,225.896 2.416,138.92 L2.416,65.836 C2.416,22.952 24.764,0 67.648,0 C108.72,0 130.464,22.952 130.464,65.836 L130.464,157.04 L75.5,157.04 L75.5,50.736 L59.796,50.736 L59.796,138.92 C59.796,208.984 130.464,234.352 130.464,329.784 L130.464,418.572 C130.464,461.456 108.116,484.408 65.232,484.408 Z M263.948,6.04 L263.948,56.776 L233.748,56.776 L233.748,478.368 L176.368,478.368 L176.368,56.776 L146.168,56.776 L146.168,6.04 L263.948,6.04 Z M325.556,478.368 L325.556,298.376 L271.196,6.04 L328.576,6.04 L350.924,186.636 L350.924,198.716 L356.964,198.716 L356.964,186.636 L379.916,6.04 L437.296,6.04 L382.936,298.376 L382.936,478.368 L325.556,478.368 Z M511.588,427.028 L554.472,427.028 L554.472,478.368 L454.208,478.368 L454.208,6.04 L511.588,6.04 L511.588,427.028 Z M674.668,56.776 L631.784,56.776 L631.784,202.34 L667.42,202.34 L667.42,253.076 L631.784,253.076 L631.784,427.632 L674.668,427.632 L674.668,478.368 L574.404,478.368 L574.404,6.04 L674.668,6.04 L674.668,56.776 Z M880.028,157.04 L822.648,157.04 L822.648,50.736 L806.944,50.736 L806.944,433.672 L826.272,433.672 L826.272,253.076 L818.42,253.076 L818.42,202.34 L880.028,202.34 L880.028,418.572 C880.028,461.456 857.68,484.408 814.796,484.408 C771.912,484.408 749.564,461.456 749.564,418.572 L749.564,65.836 C749.564,22.952 771.912,0 814.796,0 C857.68,0 880.028,22.952 880.028,65.836 L880.028,157.04 Z M978.48,6.04 L1035.86,6.04 L1035.86,418.572 C1035.86,461.456 1013.512,484.408 970.628,484.408 C927.744,484.408 905.396,461.456 905.396,418.572 L905.396,6.04 L962.776,6.04 L962.776,433.672 L978.48,433.672 L978.48,6.04 Z M1061.228,478.368 L1061.228,6.04 L1118.608,6.04 L1118.608,478.368 L1061.228,478.368 Z M1145.184,478.368 L1145.184,6.04 L1222.496,6.04 C1255.716,6.04 1275.648,30.804 1275.648,71.876 L1275.648,412.532 C1275.648,453.604 1255.716,478.368 1222.496,478.368 L1145.184,478.368 Z M1202.564,427.632 L1218.268,427.632 L1218.268,56.776 L1202.564,56.776 L1202.564,427.632 Z M1402.488,56.776 L1359.604,56.776 L1359.604,202.34 L1395.24,202.34 L1395.24,253.076 L1359.604,253.076 L1359.604,427.632 L1402.488,427.632 L1402.488,478.368 L1302.224,478.368 L1302.224,6.04 L1402.488,6.04 L1402.488,56.776 Z" id="style-guide"></path>
        </g>
    </g>
</svg>