<?xml version="1.0" encoding="UTF-8"?>
<svg width="744px" height="539px" viewBox="0 0 744 539" version="1.1" xmlns="http://www.w3.org/2000/svg" xmlns:xlink="http://www.w3.org/1999/xlink">
    <!-- Generator: Sketch 49.3 (51167) - http://www.bohemiancoding.com/sketch -->
    <title>UI Kit</title>
    <desc>Created with Sketch.</desc>
    <defs></defs>
    <g id="Page-2" stroke="none" stroke-width="1" fill="none" fill-rule="evenodd">
        <g id="Artboard-2-Copy" transform="translate(-246.000000, -695.000000)" fill="#000000">
            <g id="Group" transform="translate(192.000000, 365.000000)">
                <path d="M136.19651,330 L200.730959,330 L200.730959,793.968728 C200.730959,842.199738 175.59649,868.013518 127.36548,868.013518 C79.1344699,868.013518 54,842.199738 54,793.968728 L54,330 L118.53445,330 L118.53445,810.951478 L136.19651,810.951478 L136.19651,330 Z M229.261979,861.220418 L229.261979,330 L293.796429,330 L293.796429,861.220418 L229.261979,861.220418 Z M385.503279,861.220418 L385.503279,330 L450.037729,330 L450.037729,550.775749 L457.510139,550.775749 L457.510139,536.510239 L490.117018,330 L554.651468,330 L508.458388,567.079189 L560.765258,861.220418 L496.230808,861.220418 L457.510139,621.423989 L457.510139,607.837789 L450.037729,607.837789 L450.037729,861.220418 L385.503279,861.220418 Z M581.144558,861.220418 L581.144558,330 L645.679008,330 L645.679008,861.220418 L581.144558,861.220418 Z M797.165137,330 L797.165137,387.06204 L763.199637,387.06204 L763.199637,861.220418 L698.665188,861.220418 L698.665188,387.06204 L664.699688,387.06204 L664.699688,330 L797.165137,330 Z" id="UI-Kit"></path>
            </g>
        </g>
    </g>
</svg>